<svg xmlns="http://www.w3.org/2000/svg" viewBox="0 0 44 44" fill="none"><rect x="3" y="3" width="38" height="38" rx="12" fill="#E6C803"/><g clip-path="url(#clip0_167_540)"><path d="M6.40686 6.66876H37.331V37.5929H6.40686V6.66876Z" fill="#E6C803"/><path d="M34.8 30.2175C34.5737 28.8065 33.6536 27.6218 30.9286 26.5166C29.9821 26.0815 28.9268 25.7699 28.6123 25.0527C28.5006 24.6352 28.4859 24.4001 28.5564 24.1473C28.7592 23.3271 29.7381 23.0714 30.5142 23.3066C31.0139 23.4741 31.4872 23.8592 31.7723 24.4736C33.1068 23.6094 33.1039 23.6152 34.0357 23.0215C33.6948 22.4923 33.5125 22.2483 33.2891 22.022C32.4866 21.1254 31.3931 20.6639 29.644 20.6992C29.3413 20.7374 29.0356 20.7785 28.7328 20.8168C27.8598 21.0373 27.0278 21.4958 26.5399 22.1102C25.076 23.771 25.4934 26.6782 27.2748 27.8747C29.0297 29.1916 31.6077 29.4914 31.9369 30.7231C32.2573 32.2311 30.8287 32.719 29.4089 32.5456C28.3624 32.3281 27.7804 31.796 27.1513 30.8289C25.9931 31.4991 25.9931 31.4991 24.8026 32.1841C25.0848 32.8014 25.3817 33.0806 25.855 33.6156C28.0949 35.8879 33.7006 35.7762 34.706 32.3369C34.7471 32.2193 35.0176 31.4315 34.8 30.2175V30.2175ZM23.2182 20.8814H20.3257C20.3257 23.3801 20.3139 25.861 20.3139 28.3597C20.3139 29.95 20.3962 31.408 20.1376 31.8548C19.7143 32.7337 18.6178 32.625 18.1181 32.4544C17.6095 32.2046 17.3509 31.8489 17.051 31.3463C16.9687 31.2022 16.907 31.0905 16.8864 31.0817C16.1015 31.5608 15.3196 32.0429 14.5347 32.5221C14.9257 33.3246 15.5018 34.0212 16.2397 34.4739C17.342 35.1353 18.8235 35.3381 20.3727 34.9825C21.381 34.6885 22.2511 34.08 22.7067 33.1541C23.3652 31.94 23.2241 30.4703 23.2182 28.8447C23.2329 26.1932 23.2182 23.5417 23.2182 20.8814Z" fill="#0C0C0C"/></g><defs><clipPath id="clip0_167_540"><rect width="30.9241" height="30.9241" fill="white" transform="translate(6.40686 6.66876)"/></clipPath></defs></svg>