<svg xmlns="http://www.w3.org/2000/svg" viewBox="0 0 60 60" fill="none"><g clip-path="url(#clip0_175_588)"><g filter="url(#filter0_d_175_588)"><path d="M17.3984 32.8744L10.4018 48.0702C9.54914 49.922 10.8708 52.0511 12.873 52.0511H42.4128L33.5833 32.8745L25.4525 28.8413L17.3984 32.8744Z" fill="#C38959"/><path d="M23.9332 24.2467L23.0285 29.4394L19.0905 52.051H12.8745C10.8723 52.051 9.5506 49.9219 10.4032 48.0701L17.3998 32.8746L21.9297 26.2363C22.3745 25.2703 23.1009 24.6068 23.9332 24.2467V24.2467Z" fill="#B17A4A"/><path d="M33.5832 32.8742C33.4521 32.9627 33.3302 33.0651 33.2191 33.1784C32.7938 33.6125 32.5314 34.2124 32.5314 34.875C32.5314 36.2002 31.4813 37.2736 30.1849 37.2736C29.5367 37.2736 28.9499 37.0054 28.5253 36.5715C28.1007 36.1374 27.8384 35.5376 27.8384 34.875C27.8384 33.5498 26.7875 32.4763 25.491 32.4763C24.8436 32.4763 24.2568 32.7445 23.8323 33.1784C23.4077 33.6125 23.1445 34.2124 23.1445 34.875C23.1445 36.2002 22.0936 37.2736 20.798 37.2736C20.1498 37.2736 19.563 37.0054 19.1384 36.5715C18.7138 36.1374 18.4515 35.5376 18.4515 34.875C18.4515 34.0387 18.0337 33.303 17.3989 32.8742L21.9289 23.0354C23.3481 19.9543 27.635 19.9543 29.0534 23.0354L33.5832 32.8742Z" fill="#9BD069"/><path d="M21.9287 23.037L17.3987 32.8758C18.0334 33.3047 18.4513 34.0404 18.4513 34.8766C18.4513 35.5392 18.7136 36.139 19.1381 36.5731C19.5627 37.0071 20.1496 37.2752 20.7978 37.2752C21.1155 37.2752 21.4184 37.2103 21.6949 37.0933L24.1431 23.037C24.4115 21.5 24.9492 20.7302 25.4868 20.7264C24.0618 20.728 22.6376 21.4981 21.9287 23.037Z" fill="#6EC17D"/></g><g filter="url(#filter1_d_175_588)"><path d="M28.3172 34.8541L20.3992 52.0511H45.2081C47.7856 52.0511 49.4872 49.3101 48.3895 46.9261L42.8312 34.8542L35.5398 31.2375L28.3172 34.8541Z" fill="#C38959"/><path d="M34.1776 27.1171L33.3664 31.7737L29.8348 52.0511H20.4006L28.3186 34.8543L32.3809 28.9013C32.7798 28.0351 33.4312 27.44 34.1776 27.1171V27.1171Z" fill="#B17A4A"/><path d="M42.8313 34.8539C42.7137 34.9333 42.6043 35.025 42.5048 35.1268C42.1234 35.516 41.8881 36.054 41.8881 36.6482C41.8881 37.8366 40.9465 38.7992 39.7838 38.7992C39.2025 38.7992 38.6762 38.5587 38.2955 38.1695C37.9148 37.7803 37.6795 37.2423 37.6795 36.6481C37.6795 35.4596 36.737 34.4971 35.5744 34.4971C34.9939 34.4971 34.4676 34.7375 34.0869 35.1267C33.7061 35.5159 33.4701 36.0539 33.4701 36.6481C33.4701 37.8366 32.5277 38.7991 31.3658 38.7991C30.7845 38.7991 30.2583 38.5586 29.8775 38.1694C29.4968 37.7802 29.2616 37.2422 29.2616 36.648C29.2616 35.8981 28.8869 35.2384 28.3176 34.8538L32.3799 26.0307C33.6526 23.2678 37.497 23.2678 38.769 26.0307L42.8313 34.8539Z" fill="#9BD069"/><path d="M32.3799 26.0326L28.3176 34.8557C28.8869 35.2404 29.2616 35.9001 29.2616 36.6499C29.2616 37.2441 29.4969 37.7821 29.8775 38.1713C30.2583 38.5605 30.7845 38.801 31.3658 38.801C31.6508 38.801 31.9225 38.7428 32.1703 38.6379L34.3658 26.0327C34.6065 24.6543 35.0887 23.9641 35.5707 23.9607C34.293 23.9619 33.0156 24.6525 32.3799 26.0326V26.0326Z" fill="#6EC17D"/></g><path d="M19.4726 43.7899V43.2153C19.4726 40.757 17.5231 38.7641 15.1183 38.7641C12.7134 38.7641 10.7639 40.757 10.7639 43.2153V43.7899C8.66113 43.9382 7 45.7276 7 47.9149C7 50.1992 8.81151 52.051 11.0462 52.051H19.1903C21.425 52.051 23.2366 50.1993 23.2366 47.9149C23.2366 45.7276 21.5754 43.9382 19.4726 43.7899Z" fill="#9BD069"/><path d="M10.2603 47.9166C10.2603 49.0588 10.7132 50.0933 11.4457 50.8411C12.1773 51.5898 13.1893 52.0528 14.3066 52.0528H11.0464C9.92904 52.0528 8.91698 51.5898 8.18547 50.8411C7.4529 50.0932 7 49.0587 7 47.9166C7 45.7297 8.66104 43.9399 10.7641 43.7914V43.2171C10.7641 41.9877 11.2515 40.8753 12.0394 40.0699C12.8272 39.2645 13.9165 38.7663 15.1191 38.7663C15.6955 38.7663 16.2464 38.8804 16.7493 39.0892C16.202 39.3146 15.71 39.6505 15.2997 40.0699C14.5118 40.8753 14.0244 41.9877 14.0244 43.2171V43.7914C11.9213 43.9398 10.2603 45.7296 10.2603 47.9166V47.9166Z" fill="#6EC17D"/><path d="M39.094 46.709V46.3374C39.094 44.7477 37.8332 43.459 36.2781 43.459C34.723 43.459 33.4623 44.7477 33.4623 46.3374V46.709C32.1025 46.8049 31.0283 47.962 31.0283 49.3765C31.0283 50.8537 32.1997 52.0511 33.6448 52.0511H38.9113C40.3563 52.0511 41.5278 50.8537 41.5278 49.3765C41.5279 47.9621 40.4537 46.8049 39.094 46.709V46.709Z" fill="#9BD069"/><path d="M33.1367 49.3766C33.1367 50.1152 33.4296 50.7842 33.9033 51.2678C34.3764 51.752 35.0309 52.0514 35.7534 52.0514H33.645C32.9225 52.0514 32.268 51.7521 31.7949 51.2678C31.3213 50.7842 31.0283 50.1152 31.0283 49.3766C31.0283 47.9624 32.1024 46.8051 33.4624 46.709V46.3376C33.4624 45.5426 33.7775 44.8232 34.287 44.3025C34.7965 43.7817 35.5008 43.4595 36.2786 43.4595C36.6513 43.4595 37.0075 43.5332 37.3327 43.6683C36.9788 43.8141 36.6606 44.0312 36.3954 44.3025C35.8859 44.8233 35.5707 45.5427 35.5707 46.3376V46.709C34.2108 46.8051 33.1367 47.9624 33.1367 49.3766V49.3766Z" fill="#6EC17D"/><path d="M48.6079 44.6057V44.0878C48.6079 41.8723 46.8509 40.0762 44.6835 40.0762C42.5161 40.0762 40.7591 41.8723 40.7591 44.0878V44.6057C38.864 44.7394 37.3669 46.3521 37.3669 48.3233C37.3669 50.3821 38.9996 52.051 41.0135 52.051H48.3534C50.3674 52.051 52 50.382 52 48.3233C52 46.3522 50.503 44.7394 48.6079 44.6057Z" fill="#9BD069"/><path d="M40.3053 48.325C40.3053 49.3544 40.7135 50.2868 41.3736 50.9608C42.033 51.6356 42.945 52.0528 43.9521 52.0528H41.0137C40.0067 52.0528 39.0946 51.6356 38.4353 50.9608C37.7751 50.2868 37.3669 49.3545 37.3669 48.325C37.3669 46.3541 38.8639 44.7411 40.7593 44.6073V44.0897C40.7593 42.9818 41.1986 41.9791 41.9087 41.2533C42.6188 40.5274 43.6004 40.0784 44.6843 40.0784C45.2037 40.0784 45.7003 40.1812 46.1535 40.3694C45.6602 40.5726 45.2168 40.8753 44.847 41.2533C44.137 41.9791 43.6977 42.9817 43.6977 44.0897V44.6073C41.8023 44.7411 40.3053 46.3541 40.3053 48.325Z" fill="#6EC17D"/><path d="M49.0438 16.0965H46.0965C46.2441 15.7893 46.3273 15.4438 46.3273 15.0783C46.3273 13.8003 45.3137 12.7642 44.0635 12.7642H37.3627C36.1124 12.7642 35.0989 13.8003 35.0989 15.0783C35.0989 16.3564 36.1124 17.3923 37.3627 17.3923H40.3099C40.1623 17.6996 40.0792 18.0452 40.0792 18.4105C40.0792 19.6886 41.0928 20.7247 42.343 20.7247H49.0438C50.294 20.7247 51.3076 19.6886 51.3076 18.4105C51.3075 17.1326 50.294 16.0965 49.0438 16.0965V16.0965Z" fill="white"/><path d="M37.2716 15.0784C37.2716 15.7168 37.5248 16.2957 37.935 16.7142C38.3444 17.1336 38.9108 17.3924 39.5353 17.3924H37.3623C36.7379 17.3924 36.1715 17.1336 35.7621 16.7142C35.3518 16.2958 35.0986 15.7168 35.0986 15.0784C35.0986 13.7999 36.1125 12.7644 37.3623 12.7644H39.5353C38.2854 12.7644 37.2716 13.7999 37.2716 15.0784Z" fill="#DDDAEC"/><path d="M44.5157 20.7243H42.3428C41.7174 20.7243 41.152 20.4654 40.7426 20.047C40.3323 19.6285 40.0791 19.0495 40.0791 18.4103C40.0791 18.0447 40.1626 17.6995 40.3096 17.3924H42.4826C42.3356 17.6995 42.2521 18.0447 42.2521 18.4103C42.2521 19.0496 42.5053 19.6285 42.9156 20.047C43.3249 20.4654 43.8904 20.7243 44.5157 20.7243Z" fill="#DDDAEC"/><path d="M10.8603 10.4561H13.8076C13.66 10.1488 13.5768 9.8034 13.5768 9.43792C13.5768 8.15989 14.5904 7.12381 15.8406 7.12381H21.1797C22.43 7.12381 23.4435 8.15989 23.4435 9.43792C23.4435 10.7159 22.43 11.7519 21.1797 11.7519H19.5941C19.7417 12.0592 19.8248 12.4047 19.8248 12.7701C19.8248 14.0482 18.8113 15.0842 17.561 15.0842H10.8602C9.60999 15.0842 8.59644 14.0482 8.59644 12.7701C8.59661 11.4922 9.61008 10.4561 10.8603 10.4561Z" fill="white"/><path d="M10.6429 12.7702C10.6429 11.4922 11.6565 10.4561 12.9067 10.4561H10.8605C9.61023 10.4561 8.59668 11.4922 8.59668 12.7702C8.59668 14.0482 9.61023 15.0843 10.8605 15.0843H12.9067C11.6564 15.0842 10.6429 14.0482 10.6429 12.7702Z" fill="#DDDAEC"/><path d="M15.8538 10.4561C15.7062 10.1488 15.6231 9.8034 15.6231 9.43792C15.6231 8.15989 16.6366 7.12381 17.8868 7.12381H15.8406C14.5904 7.12381 13.5769 8.15989 13.5769 9.43792C13.5769 9.80331 13.66 10.1488 13.8076 10.4561H15.8538Z" fill="#DDDAEC"/><path d="M50.0747 52.8761H8.92534C8.54935 52.8761 8.24463 52.5646 8.24463 52.1803C8.24463 51.796 8.54935 51.4845 8.92534 51.4845H50.0746C50.4506 51.4845 50.7553 51.796 50.7553 52.1803C50.7553 52.5646 50.4507 52.8761 50.0747 52.8761V52.8761Z" fill="#6EC17D"/></g><defs><filter id="filter0_d_175_588" x="4.13843" y="14.7246" width="44.2744" height="43.3265" filterUnits="userSpaceOnUse" color-interpolation-filters="sRGB"><feFlood flood-opacity="0" result="BackgroundImageFix"/><feColorMatrix in="SourceAlpha" type="matrix" values="0 0 0 0 0 0 0 0 0 0 0 0 0 0 0 0 0 0 127 0" result="hardAlpha"/><feOffset/><feGaussianBlur stdDeviation="3"/><feComposite in2="hardAlpha" operator="out"/><feColorMatrix type="matrix" values="0 0 0 0 0 0 0 0 0 0 0 0 0 0 0 0 0 0 0.25 0"/><feBlend mode="normal" in2="BackgroundImageFix" result="effect1_dropShadow_175_588"/><feBlend mode="normal" in="SourceGraphic" in2="effect1_dropShadow_175_588" result="shape"/></filter><filter id="filter1_d_175_588" x="14.3992" y="17.9585" width="40.3293" height="40.0926" filterUnits="userSpaceOnUse" color-interpolation-filters="sRGB"><feFlood flood-opacity="0" result="BackgroundImageFix"/><feColorMatrix in="SourceAlpha" type="matrix" values="0 0 0 0 0 0 0 0 0 0 0 0 0 0 0 0 0 0 127 0" result="hardAlpha"/><feOffset/><feGaussianBlur stdDeviation="3"/><feComposite in2="hardAlpha" operator="out"/><feColorMatrix type="matrix" values="0 0 0 0 0 0 0 0 0 0 0 0 0 0 0 0 0 0 0.25 0"/><feBlend mode="normal" in2="BackgroundImageFix" result="effect1_dropShadow_175_588"/><feBlend mode="normal" in="SourceGraphic" in2="effect1_dropShadow_175_588" result="shape"/></filter><clipPath id="clip0_175_588"><rect width="45" height="46" fill="white" transform="translate(7 7)"/></clipPath></defs></svg>