<svg xmlns="http://www.w3.org/2000/svg" viewBox="0 0 45 44" fill="currentColor"><path d="M20.6544 0.0343668C20.5598 0.0429597 20.2591 0.0730349 19.9884 0.0945172C13.7457 0.657353 7.89819 4.02577 4.19465 9.203C2.13235 12.0816 0.813335 15.3469 0.314947 18.8056C0.138792 20.0129 0.11731 20.3695 0.11731 22.0064C0.11731 23.6434 0.138792 24 0.314947 25.2073C1.50936 33.4608 7.38262 40.3953 15.3482 42.9646C16.7747 43.4243 18.2784 43.7379 19.9884 43.927C20.6544 44 23.533 44 24.1989 43.927C27.1506 43.6004 29.6511 42.87 32.1173 41.6112C32.4954 41.4178 32.5684 41.3663 32.5169 41.3233C32.4825 41.2975 30.8713 39.1364 28.9379 36.5242L25.4234 31.7766L21.0196 25.2589C18.5964 21.6756 16.6028 18.7454 16.5856 18.7454C16.5684 18.7411 16.5513 21.6369 16.5427 25.1729C16.5298 31.3641 16.5255 31.6133 16.4481 31.7594C16.3364 31.9699 16.2505 32.0559 16.07 32.1504C15.9326 32.2191 15.8123 32.232 15.1635 32.232H14.4202L14.2226 32.1074C14.0937 32.0258 13.9992 31.9184 13.9347 31.7938L13.8445 31.6004L13.8531 22.986L13.866 14.3673L13.9992 14.1998C14.0679 14.1096 14.214 13.9936 14.3171 13.9377C14.4932 13.8518 14.562 13.8432 15.3053 13.8432C16.1818 13.8432 16.3278 13.8775 16.5555 14.1267C16.62 14.1955 19.0045 17.7873 21.8574 22.1139C24.7102 26.4404 28.6114 32.348 30.5276 35.2481L34.0077 40.5199L34.1839 40.4039C35.7435 39.3899 37.3934 37.9463 38.6995 36.4425C41.4793 33.2503 43.2709 29.3577 43.8724 25.2073C44.0486 24 44.07 23.6434 44.07 22.0064C44.07 20.3695 44.0486 20.0129 43.8724 18.8056C42.678 10.5521 36.8047 3.61761 28.8391 1.04833C27.4342 0.592906 25.939 0.279265 24.2634 0.0902207C23.8509 0.0472562 21.011 -4.83543e-06 20.6544 0.0343668ZM29.6511 13.3276C29.8574 13.4307 30.0249 13.6284 30.0851 13.8346C30.1195 13.9463 30.128 16.3351 30.1195 21.7186L30.1066 29.4436L28.7446 27.3555L27.3783 25.2675V19.652C27.3783 16.0215 27.3955 13.9807 27.4213 13.8818C27.49 13.6412 27.6404 13.4522 27.8466 13.3405C28.0228 13.2503 28.0872 13.2417 28.7618 13.2417C29.3977 13.2417 29.5094 13.2503 29.6511 13.3276Z" fill="currentColor"/></svg>