<svg xmlns="http://www.w3.org/2000/svg" viewBox="0 0 44 44" fill="currentColor"><path d="M43 21.5843C43 18.8201 39.5157 16.2005 34.1737 14.5759C35.4065 9.16642 34.8586 4.86272 32.4443 3.48487C31.8879 3.16166 31.2373 3.0086 30.5267 3.0086V4.90528C30.9205 4.90528 31.2373 4.98181 31.5026 5.12638C32.667 5.78977 33.172 8.31589 32.7783 11.5649C32.6841 12.3645 32.53 13.2065 32.3416 14.0656C30.6637 13.6572 28.8316 13.3426 26.9054 13.1384C25.7497 11.5649 24.5511 10.136 23.3441 8.88577C26.1349 6.3086 28.7546 4.89679 30.5353 4.89679V3C28.181 3 25.0991 4.66709 21.9829 7.55898C18.8666 4.68408 15.7848 3.03407 13.4305 3.03407V4.93075C15.2026 4.93075 17.8308 6.33419 20.6217 8.89427C19.4232 10.1445 18.2246 11.5649 17.086 13.1384C15.1513 13.3426 13.3192 13.6572 11.6413 14.0741C11.4443 13.2235 11.2988 12.3985 11.196 11.6075C10.7937 8.35845 11.2902 5.83234 12.446 5.16045C12.7028 5.00728 13.0367 4.93924 13.4305 4.93924V3.04257C12.7113 3.04257 12.0607 3.19562 11.4957 3.51883C9.09004 4.89679 8.55072 9.192 9.79204 14.5844C4.46721 16.2174 1 18.8286 1 21.5843C1 24.3486 4.4843 26.9682 9.82634 28.5927C8.59351 34.0021 9.14143 38.3059 11.5557 39.6838C12.1121 40.007 12.7627 40.16 13.4818 40.16C15.8361 40.16 18.918 38.493 22.0343 35.6012C25.1505 38.476 28.2324 40.1261 30.5867 40.1261C31.3058 40.1261 31.9564 39.9729 32.5214 39.6497C34.9271 38.2719 35.4664 33.9766 34.2251 28.5842C39.5328 26.9597 43 24.3401 43 21.5843ZM31.8537 15.9112C31.5369 17.0084 31.1431 18.1396 30.698 19.2709C30.3469 18.5904 29.9788 17.91 29.5764 17.2295C29.1827 16.5491 28.7631 15.8857 28.3437 15.2393C29.5593 15.418 30.7321 15.6391 31.8537 15.9112ZM27.9328 24.9694C27.2649 26.1177 26.5802 27.2064 25.8695 28.2185C24.5939 28.3291 23.3013 28.3886 22 28.3886C20.7073 28.3886 19.4146 28.3291 18.1475 28.2271C17.4371 27.2149 16.7435 26.1346 16.0759 24.995C15.4252 23.8808 14.8345 22.7495 14.2951 21.6099C14.8259 20.4701 15.4252 19.3304 16.0672 18.2162C16.7351 17.068 17.4198 15.9792 18.1305 14.9672C19.4061 14.8566 20.6988 14.797 22 14.797C23.2927 14.797 24.5854 14.8566 25.8525 14.9586C26.5629 15.9708 27.2565 17.051 27.9241 18.1906C28.5748 19.3048 29.1655 20.4361 29.7049 21.5758C29.1655 22.7156 28.5748 23.8552 27.9328 24.9694ZM30.698 23.8637C31.1602 25.0035 31.554 26.1433 31.8793 27.249C30.7578 27.5211 29.5764 27.7507 28.3522 27.9293C28.7717 27.2744 29.1912 26.6025 29.585 25.9136C29.9788 25.2332 30.3469 24.5442 30.698 23.8637ZM22.0171 32.939C21.2209 32.1224 20.4248 31.2123 19.6371 30.2173C20.4076 30.2513 21.1953 30.2768 21.9914 30.2768C22.7962 30.2768 23.5924 30.2598 24.3714 30.2173C23.6009 31.2123 22.8047 32.1224 22.0171 32.939ZM15.6478 27.9293C14.4321 27.7507 13.2592 27.5296 12.1378 27.2574C12.4546 26.1602 12.8483 25.0289 13.2935 23.8978C13.6445 24.5782 14.0126 25.2586 14.415 25.939C14.8173 26.6195 15.2283 27.2829 15.6478 27.9293ZM21.9743 10.2297C22.7705 11.0461 23.5667 11.9562 24.3543 12.9514C23.5838 12.9173 22.7962 12.8919 22 12.8919C21.1953 12.8919 20.3991 12.9088 19.62 12.9514C20.3905 11.9562 21.1867 11.0461 21.9743 10.2297ZM15.6392 15.2393C15.2198 15.8942 14.8002 16.5661 14.4065 17.2551C14.0126 17.9355 13.6445 18.616 13.2935 19.2963C12.8312 18.1567 12.4375 17.0169 12.1121 15.9112C13.2335 15.6475 14.415 15.418 15.6392 15.2393ZM7.89151 25.8881C4.86094 24.6037 2.90053 22.9197 2.90053 21.5843C2.90053 20.249 4.86094 18.5564 7.89151 17.2806C8.62781 16.9659 9.43249 16.6852 10.263 16.4216C10.7509 18.0886 11.393 19.8237 12.1892 21.6014C11.4015 23.3705 10.768 25.097 10.2887 26.7556C9.44109 26.4919 8.63642 26.2027 7.89151 25.8881ZM12.4974 38.0423C11.333 37.3788 10.828 34.8526 11.2217 31.6037C11.3159 30.8041 11.47 29.9621 11.6584 29.1031C13.3363 29.5113 15.1684 29.826 17.0946 30.0301C18.2503 31.6037 19.4489 33.0325 20.6559 34.2829C17.8651 36.8599 15.2454 38.2719 13.4647 38.2719C13.0795 38.2634 12.7542 38.1868 12.4974 38.0423ZM32.804 31.5611C33.2063 34.8102 32.7098 37.3363 31.554 38.0082C31.2972 38.1613 30.9633 38.2293 30.5695 38.2293C28.7974 38.2293 26.1692 36.826 23.3783 34.2658C24.5768 33.0155 25.7754 31.5951 26.914 30.0216C28.8487 29.8175 30.6808 29.5028 32.3587 29.0861C32.5557 29.9451 32.7098 30.7702 32.804 31.5611ZM36.0999 25.8881C35.3636 26.2027 34.5589 26.4834 33.7285 26.7471C33.2405 25.08 32.5985 23.3449 31.8023 21.5673C32.5899 19.7982 33.2234 18.0716 33.7028 16.4131C34.5503 16.6767 35.3551 16.9659 36.1085 17.2806C39.1391 18.5649 41.0995 20.249 41.0995 21.5843C41.0909 22.9197 39.1305 24.6122 36.0999 25.8881Z" fill="currentColor"/><path d="M21.9913 25.4712C24.1521 25.4712 25.9037 23.7309 25.9037 21.5842C25.9037 19.4375 24.1521 17.6973 21.9913 17.6973C19.8306 17.6973 18.079 19.4375 18.079 21.5842C18.079 23.7309 19.8306 25.4712 21.9913 25.4712Z" fill="currentColor"/></svg>