<svg xmlns="http://www.w3.org/2000/svg" viewBox="0 0 44 44" fill="none"><g clip-path="url(#clip0_167_526)"><g filter="url(#filter0_d_167_526)"><g clip-path="url(#clip1_167_526)"><path d="M22 10.0307C16.9334 10.0307 13.7666 12.5961 12.5 17.7267C14.4 15.1613 16.6166 14.1993 19.15 14.8407C20.5953 15.2065 21.6285 16.2685 22.772 17.4438C24.6349 19.3586 26.7908 21.5746 31.5 21.5746C36.5666 21.5746 39.7334 19.0093 41 13.8787C39.1 16.444 36.8834 17.406 34.35 16.7647C32.9047 16.3988 31.8715 15.3369 30.728 14.1616C28.8651 12.2467 26.7092 10.0307 22 10.0307ZM12.5 21.5746C7.43338 21.5746 4.26662 24.14 3 29.2706C4.9 26.7052 7.11662 25.7432 9.65 26.3846C11.0953 26.7505 12.1285 27.8124 13.272 28.9877C15.1349 30.9025 17.2908 33.1186 22 33.1186C27.0666 33.1186 30.2334 30.5532 31.5 25.4226C29.6 27.988 27.3834 28.95 24.85 28.3086C23.4047 27.9427 22.3715 26.8808 21.228 25.7055C19.3651 23.7907 17.2092 21.5746 12.5 21.5746Z" fill="url(#paint0_linear_167_526)"/></g></g></g><defs><filter id="filter0_d_167_526" x="-57" y="-46" width="158" height="143.149" filterUnits="userSpaceOnUse" color-interpolation-filters="sRGB"><feFlood flood-opacity="0" result="BackgroundImageFix"/><feColorMatrix in="SourceAlpha" type="matrix" values="0 0 0 0 0 0 0 0 0 0 0 0 0 0 0 0 0 0 127 0" result="hardAlpha"/><feOffset dy="4"/><feGaussianBlur stdDeviation="30"/><feColorMatrix type="matrix" values="0 0 0 0 0.631373 0 0 0 0 0.631373 0 0 0 0 0.631373 0 0 0 0.25 0"/><feBlend mode="normal" in2="BackgroundImageFix" result="effect1_dropShadow_167_526"/><feBlend mode="normal" in="SourceGraphic" in2="effect1_dropShadow_167_526" result="shape"/></filter><linearGradient id="paint0_linear_167_526" x1="1.94436" y1="17.4188" x2="34.9677" y2="36.2221" gradientUnits="userSpaceOnUse"><stop stop-color="#2298BD"/><stop offset="1" stop-color="#0ED7B5"/></linearGradient><clipPath id="clip0_167_526"><rect width="44" height="44" fill="white"/></clipPath><clipPath id="clip1_167_526"><rect width="38" height="23.1494" fill="white" transform="translate(3 10)"/></clipPath></defs></svg>